<?xml version="1.0" encoding="utf-8"?>
<!-- Generator: Adobe Illustrator 24.0.0, SVG Export Plug-In . SVG Version: 6.00 Build 0)  -->
<svg version="1.1" id="Layer_1" xmlns="http://www.w3.org/2000/svg" xmlns:xlink="http://www.w3.org/1999/xlink" x="0px" y="0px"
	 viewBox="0 0 256 256" style="enable-background:new 0 0 256 256;" xml:space="preserve">
<style type="text/css">
	.st0{fill:#382B73;}
	.st1{fill:#291B4A;}
	.st2{fill:#ED9ABC;}
	.st3{fill:#E54890;}
	.st4{fill:#D3D3D3;}
	.st5{fill:#EBE7F2;}
	.st6{fill:#F9B087;}
	.st7{fill:#FF8639;}
	.st8{fill:#65C1D6;}
	.st9{fill:#149CB2;}
</style>
<g>
	<g>
		<g>
			<g>
				<g>
					
						<ellipse transform="matrix(0.7071 -0.7071 0.7071 0.7071 -53.0193 128)" class="st0" cx="128" cy="128" rx="119.4" ry="119.4"/>
				</g>
			</g>
		</g>
	</g>
	<g>
		<g>
			<g>
				<g>
					<path class="st1" d="M103.642,184.345c-1.338,0-2.65,0.215-3.896,0.632c-2.519-6.876-9.074-11.594-16.635-11.594
						c-9.477,0-17.241,7.466-17.72,16.825c-4.618,1.818-7.793,6.339-7.793,11.436c0,6.774,5.511,12.285,12.285,12.285h76.923
						c0.001,0,0.003,0,0.004,0c0.002,0,0.004,0,0.006,0h33.51c0.002,0,0.004,0,0.006,0c0.001,0,0.003,0,0.004,0h12.601
						c1.847,0,3.554-0.922,4.567-2.466c1.013-1.544,1.179-3.477,0.444-5.17l-21.637-49.886c2.434-0.536,4.261-2.706,4.261-5.298
						v-4.883c0-2.592-1.827-4.762-4.261-5.298l2.259-5.207c0.734-1.694,0.567-3.627-0.446-5.171
						c-1.013-1.543-2.72-2.464-4.565-2.464h-2.119V42.224c0-4.242-3.451-7.693-7.692-7.693h-0.354c-4.241,0-7.692,3.451-7.692,7.693
						v85.863h-2.119c-1.847,0-3.554,0.922-4.567,2.466c-1.013,1.543-1.179,3.477-0.444,5.17l2.258,5.207
						c-2.433,0.536-4.26,2.706-4.26,5.297v4.883c0,2.592,1.827,4.762,4.26,5.297l-21.636,49.886
						c-0.366,0.845-0.508,1.75-0.433,2.636H69.883c-4.017,0-7.285-3.268-7.285-7.285c0-3.447,2.446-6.448,5.816-7.137
						c1.22-0.249,2.07-1.356,1.995-2.599l-0.017-0.259c-0.012-0.174-0.025-0.347-0.025-0.524c0-7.026,5.717-12.743,12.743-12.743
						c6.224,0,11.499,4.454,12.544,10.591c0.144,0.84,0.705,1.549,1.489,1.882c0.785,0.333,1.685,0.243,2.389-0.239
						c1.215-0.832,2.636-1.272,4.109-1.272c4.017,0,7.284,3.268,7.284,7.285c0,0.999-0.201,1.97-0.597,2.887
						c-0.334,0.772-0.257,1.661,0.206,2.365c0.457,0.695,1.229,1.117,2.06,1.126l10.354,3.301c1.313,0.418,2.722-0.307,3.142-1.623
						c0.419-1.315-0.307-2.722-1.622-3.141l-8.729-2.782c0.124-0.7,0.186-1.412,0.186-2.133
						C115.926,189.856,110.415,184.345,103.642,184.345z M160.701,42.224c0-1.485,1.208-2.693,2.692-2.693h0.354
						c1.484,0,2.692,1.208,2.692,2.693v85.863h-5.738V42.224z M153.195,133.295c0.091-0.139,0.221-0.209,0.387-0.209h19.977
						c0.165,0,0.295,0.07,0.386,0.208c0.092,0.139,0.104,0.286,0.038,0.438l-3.065,7.067h-14.694l-3.064-7.066c0,0,0,0-0.001,0
						C153.092,133.581,153.104,133.434,153.195,133.295z M151.568,146.227c0-0.235,0.191-0.427,0.428-0.427h23.148
						c0.236,0,0.428,0.192,0.428,0.427v4.883c0,0.235-0.191,0.427-0.428,0.427h-23.148c-0.236,0-0.428-0.192-0.428-0.427V146.227z
						 M133.78,208.283l22.442-51.746h14.694l22.444,51.747c0.065,0.151,0.053,0.299-0.038,0.437
						c-0.091,0.139-0.221,0.209-0.387,0.209h-10.627l-8.51-35.818c-0.32-1.343-1.666-2.173-3.011-1.854
						c-1.343,0.319-2.173,1.667-1.854,3.01l8.235,34.662H166.07v-20.937c0-1.381-1.119-2.5-2.5-2.5s-2.5,1.119-2.5,2.5v20.937
						h-11.099l8.235-34.662c0.318-1.343-0.512-2.691-1.854-3.01c-1.345-0.32-2.691,0.511-3.011,1.854l-8.509,35.817h-10.628
						c-0.166,0-0.296-0.07-0.387-0.208C133.727,208.583,133.714,208.436,133.78,208.283z"/>
				</g>
			</g>
		</g>
		<g>
			<g>
				<g>
					<path class="st1" d="M79.869,190.15c0-1.747,1.421-3.168,3.168-3.168c1.546,0,2.857,1.106,3.116,2.631
						c0.232,1.361,1.521,2.282,2.885,2.045c1.36-0.231,2.276-1.522,2.045-2.884c-0.67-3.936-4.054-6.792-8.046-6.792
						c-4.504,0-8.168,3.665-8.168,8.168c0,1.381,1.119,2.5,2.5,2.5S79.869,191.531,79.869,190.15z"/>
				</g>
			</g>
		</g>
		<g>
			<g>
				<g>
					<path class="st1" d="M119.299,165.184c1.381,0,2.5-1.119,2.5-2.5V58.018c0-1.381-1.119-2.5-2.5-2.5H66.19
						c-1.381,0-2.5,1.119-2.5,2.5v104.666c0,1.381,1.119,2.5,2.5,2.5H119.299z M68.69,60.518h48.108v99.666H68.69V60.518z"/>
				</g>
			</g>
		</g>
		<g>
			<g>
				<g>
					<path class="st1" d="M107.397,74.715c1.381,0,2.5-1.119,2.5-2.5s-1.119-2.5-2.5-2.5H78.092c-1.381,0-2.5,1.119-2.5,2.5
						s1.119,2.5,2.5,2.5H107.397z"/>
				</g>
			</g>
		</g>
		<g>
			<g>
				<g>
					<path class="st1" d="M107.397,86.62c1.381,0,2.5-1.119,2.5-2.5s-1.119-2.5-2.5-2.5H78.092c-1.381,0-2.5,1.119-2.5,2.5
						s1.119,2.5,2.5,2.5H107.397z"/>
				</g>
			</g>
		</g>
		<g>
			<g>
				<g>
					<path class="st1" d="M107.397,98.525c1.381,0,2.5-1.119,2.5-2.5s-1.119-2.5-2.5-2.5H78.092c-1.381,0-2.5,1.119-2.5,2.5
						s1.119,2.5,2.5,2.5H107.397z"/>
				</g>
			</g>
		</g>
		<g>
			<g>
				<g>
					<path class="st1" d="M102.625,140.977c0-5.448-4.433-9.881-9.881-9.881s-9.88,4.433-9.88,9.881s4.432,9.881,9.88,9.881
						S102.625,146.425,102.625,140.977z M87.864,140.977c0-2.691,2.189-4.881,4.88-4.881c2.691,0,4.881,2.189,4.881,4.881
						s-2.189,4.881-4.881,4.881C90.054,145.857,87.864,143.668,87.864,140.977z"/>
				</g>
			</g>
		</g>
		<g>
			<g>
				<g>
					<path class="st1" d="M100.125,123.234c1.381,0,2.5-1.119,2.5-2.5s-1.119-2.5-2.5-2.5H85.364c-1.381,0-2.5,1.119-2.5,2.5
						s1.119,2.5,2.5,2.5H100.125z"/>
				</g>
			</g>
		</g>
	</g>
	<g>
		<g>
			<g>
				<g>
					<g>
						<path class="st4" d="M166.07,207.43v-23.437c0-1.381-1.119-2.5-2.5-2.5s-2.5,1.119-2.5,2.5v23.437c0,1.381,1.119,2.5,2.5,2.5
							S166.07,208.811,166.07,207.43z"/>
					</g>
				</g>
			</g>
			<g>
				<g>
					<g>
						<g>
							<path class="st5" d="M166.07,207.43v-23.437c0-1.381-1.119-2.5-2.5-2.5s-2.5,1.119-2.5,2.5v23.437c0,1.381,1.119,2.5,2.5,2.5
								S166.07,208.811,166.07,207.43z M162.57,207.43v-23.437c0-0.551,0.449-1,1-1s1,0.449,1,1v23.437c0,0.551-0.449,1-1,1
								S162.57,207.981,162.57,207.43z"/>
						</g>
					</g>
				</g>
			</g>
			<g>
				<g>
					<g>
						<g>
							<path class="st4" d="M146.81,209.93c1.132,0,2.157-0.773,2.431-1.923l8.966-37.74c0.318-1.343-0.512-2.691-1.854-3.01
								c-1.345-0.32-2.691,0.511-3.011,1.854l-8.966,37.74c-0.318,1.343,0.512,2.691,1.854,3.01
								C146.424,209.908,146.618,209.93,146.81,209.93z"/>
						</g>
					</g>
				</g>
				<g>
					<g>
						<g>
							<g>
								<g>
									<path class="st5" d="M146.81,209.93c1.132,0,2.157-0.773,2.431-1.923l8.966-37.74c0.318-1.343-0.512-2.691-1.854-3.01
										c-0.195-0.046-0.39-0.069-0.581-0.069c-1.132,0-2.156,0.774-2.43,1.923l-8.966,37.74c-0.318,1.343,0.512,2.691,1.854,3.01
										C146.424,209.908,146.618,209.93,146.81,209.93z M145.834,207.199l8.966-37.74c0.108-0.453,0.507-0.77,0.97-0.77
										c0.078,0,0.156,0.009,0.234,0.028c0.536,0.127,0.869,0.668,0.742,1.204l-8.966,37.739c-0.108,0.453-0.507,0.77-0.971,0.77
										c-0.078,0-0.156-0.009-0.234-0.028C146.04,208.275,145.707,207.735,145.834,207.199z"/>
								</g>
							</g>
						</g>
					</g>
				</g>
				<g>
					<g>
						<g>
							<path class="st4" d="M180.331,209.93c0.191,0,0.386-0.022,0.58-0.068c1.343-0.319,2.173-1.667,1.854-3.01l-8.967-37.74
								c-0.32-1.343-1.666-2.173-3.011-1.854c-1.343,0.319-2.173,1.667-1.854,3.01l8.967,37.74
								C178.174,209.157,179.199,209.93,180.331,209.93z"/>
						</g>
					</g>
				</g>
				<g>
					<g>
						<g>
							<g>
								<path class="st5" d="M180.331,209.93c0.191,0,0.386-0.022,0.58-0.068c1.343-0.319,2.173-1.667,1.854-3.01l-8.967-37.74
									c-0.274-1.149-1.298-1.922-2.43-1.922c-0.191,0-0.386,0.022-0.581,0.068c-1.343,0.319-2.173,1.667-1.854,3.01l8.967,37.74
									C178.174,209.157,179.199,209.93,180.331,209.93z M171.135,168.717c0.078-0.018,0.156-0.028,0.234-0.028
									c0.463,0,0.863,0.317,0.97,0.769l8.967,37.739c0.127,0.537-0.205,1.078-0.743,1.205c-0.076,0.018-0.154,0.027-0.232,0.027
									c-0.464,0-0.864-0.317-0.971-0.769l-8.967-37.739C170.266,169.385,170.599,168.845,171.135,168.717z"/>
							</g>
						</g>
					</g>
				</g>
			</g>
			<g>
				<g>
					<g>
						<g>
							<g>
								<g>
									<g>
										<g>
											<path class="st8" d="M168.939,129.086c1.381,0,2.5-1.119,2.5-2.5V38.223c0-4.242-3.451-7.692-7.692-7.692h-0.354
												c-4.241,0-7.692,3.451-7.692,7.692v88.363c0,1.381,1.119,2.5,2.5,2.5s2.5-1.119,2.5-2.5V38.223
												c0-1.484,1.208-2.692,2.692-2.692h0.354c1.484,0,2.692,1.208,2.692,2.692v88.363
												C166.439,127.967,167.559,129.086,168.939,129.086z"/>
										</g>
									</g>
								</g>
							</g>
						</g>
					</g>
				</g>
				<g>
					<g>
						<g>
							<g>
								<g>
									<g>
										<g>
											<path class="st8" d="M134.204,209.93h58.732c1.847,0,3.554-0.922,4.567-2.466c1.013-1.544,1.179-3.477,0.444-5.17
												l-23.097-53.251c-0.396-0.914-1.298-1.505-2.294-1.505h-17.976c-0.996,0-1.897,0.591-2.294,1.505l-23.096,53.251
												c-0.734,1.694-0.568,3.627,0.444,5.171C130.65,209.008,132.357,209.93,134.204,209.93z M133.78,204.283l22.442-51.746
												h14.694l22.444,51.747c0.065,0.151,0.053,0.299-0.038,0.437c-0.091,0.139-0.221,0.209-0.387,0.209h-58.732
												c-0.166,0-0.296-0.07-0.387-0.208C133.727,204.583,133.714,204.436,133.78,204.283z"/>
										</g>
									</g>
								</g>
							</g>
						</g>
					</g>
				</g>
				<g>
					<g>
						<g>
							<g>
								<g>
									<g>
										<g>
											<path class="st8" d="M175.145,152.537c2.993,0,5.428-2.435,5.428-5.427v-4.883c0-2.993-2.435-5.427-5.428-5.427h-23.148
												c-2.993,0-5.428,2.435-5.428,5.427v4.883c0,2.993,2.435,5.427,5.428,5.427H175.145z M151.568,147.11v-4.883
												c0-0.235,0.191-0.427,0.428-0.427h23.148c0.236,0,0.428,0.192,0.428,0.427v4.883c0,0.235-0.191,0.427-0.428,0.427
												h-23.148C151.76,147.537,151.568,147.345,151.568,147.11z"/>
										</g>
									</g>
								</g>
							</g>
						</g>
					</g>
				</g>
				<g>
					<g>
						<g>
							<g>
								<g>
									<g>
										<g>
											<path class="st8" d="M154.582,141.799h17.976c0.996,0,1.897-0.591,2.294-1.505l3.719-8.573
												c0.734-1.694,0.567-3.627-0.446-5.171c-1.013-1.543-2.72-2.464-4.565-2.464h-19.977c-1.847,0-3.554,0.922-4.567,2.466
												c-1.013,1.543-1.179,3.477-0.444,5.17l3.718,8.572C152.685,141.208,153.586,141.799,154.582,141.799z M153.195,129.295
												c0.091-0.139,0.221-0.209,0.387-0.209h19.977c0.165,0,0.295,0.07,0.386,0.208c0.092,0.139,0.104,0.286,0.038,0.438
												l-3.065,7.067h-14.694l-3.064-7.066c0,0,0,0-0.001,0C153.092,129.581,153.104,129.434,153.195,129.295z"/>
										</g>
									</g>
								</g>
							</g>
						</g>
					</g>
				</g>
				<g>
					<g>
						<g>
							<g>
								<g>
									<g>
										<g>
											<path class="st4" d="M79.869,186.15c0-1.747,1.421-3.168,3.168-3.168c1.546,0,2.857,1.106,3.116,2.631
												c0.232,1.362,1.521,2.278,2.885,2.045c1.36-0.231,2.276-1.522,2.045-2.884c-0.67-3.936-4.054-6.792-8.046-6.792
												c-4.504,0-8.168,3.665-8.168,8.168c0,1.381,1.119,2.5,2.5,2.5S79.869,187.531,79.869,186.15z"/>
										</g>
									</g>
								</g>
								<g>
									<g>
										<g>
											<g>
												<path class="st5" d="M79.869,186.15c0-1.747,1.421-3.168,3.168-3.168c1.546,0,2.857,1.106,3.116,2.631
													c0.208,1.219,1.262,2.081,2.459,2.081c0.14,0,0.283-0.012,0.426-0.036c1.36-0.231,2.276-1.522,2.045-2.884
													c-0.67-3.936-4.054-6.792-8.046-6.792c-4.504,0-8.168,3.665-8.168,8.168c0,1.381,1.119,2.5,2.5,2.5
													S79.869,187.531,79.869,186.15z M76.369,186.15c0-3.677,2.991-6.668,6.668-6.668c3.258,0,6.02,2.332,6.567,5.544
													c0.092,0.544-0.274,1.061-0.819,1.154c-0.057,0.01-0.116,0.015-0.173,0.015c-0.486,0-0.898-0.351-0.98-0.832
													c-0.382-2.248-2.314-3.88-4.595-3.88c-2.574,0-4.668,2.094-4.668,4.668c0,0.551-0.449,1-1,1
													S76.369,186.702,76.369,186.15z"/>
											</g>
										</g>
									</g>
								</g>
								<g>
									<g>
										<g>
											<path class="st8" d="M103.642,180.345c-1.338,0-2.65,0.215-3.896,0.632c-2.519-6.876-9.074-11.594-16.635-11.594
												c-9.477,0-17.241,7.466-17.72,16.825c-4.618,1.818-7.793,6.339-7.793,11.436c0,6.774,5.511,12.285,12.285,12.285h67.879
												c1.381,0,2.5-1.119,2.5-2.5s-1.119-2.5-2.5-2.5H69.883c-4.017,0-7.285-3.268-7.285-7.285
												c0-3.447,2.446-6.448,5.816-7.137c1.22-0.249,2.07-1.356,1.995-2.599l-0.017-0.259c-0.012-0.174-0.025-0.347-0.025-0.524
												c0-7.026,5.717-12.743,12.743-12.743c6.224,0,11.499,4.454,12.544,10.591c0.144,0.84,0.705,1.549,1.489,1.882
												c0.785,0.333,1.685,0.242,2.389-0.239c1.215-0.832,2.636-1.272,4.109-1.272c4.017,0,7.284,3.268,7.284,7.285
												c0,0.999-0.201,1.97-0.597,2.887c-0.334,0.772-0.257,1.661,0.206,2.365c0.457,0.695,1.229,1.117,2.06,1.126l10.354,3.301
												c1.313,0.418,2.722-0.306,3.142-1.623c0.419-1.315-0.307-2.722-1.622-3.141l-8.729-2.782
												c0.124-0.7,0.186-1.412,0.186-2.133C115.926,185.856,110.415,180.345,103.642,180.345z"/>
										</g>
									</g>
								</g>
							</g>
						</g>
					</g>
				</g>
			</g>
		</g>
		<g>
			<g>
				<g>
					<g>
						<path class="st2" d="M119.299,161.184c1.381,0,2.5-1.119,2.5-2.5V54.018c0-1.381-1.119-2.5-2.5-2.5H66.19
							c-1.381,0-2.5,1.119-2.5,2.5v104.666c0,1.381,1.119,2.5,2.5,2.5H119.299z M68.69,56.518h48.108v99.666H68.69V56.518z"/>
					</g>
				</g>
			</g>
			<g>
				<g>
					<g>
						<path class="st2" d="M107.397,70.715c1.381,0,2.5-1.119,2.5-2.5s-1.119-2.5-2.5-2.5H78.092c-1.381,0-2.5,1.119-2.5,2.5
							s1.119,2.5,2.5,2.5H107.397z"/>
					</g>
				</g>
			</g>
			<g>
				<g>
					<g>
						<path class="st2" d="M107.397,82.62c1.381,0,2.5-1.119,2.5-2.5s-1.119-2.5-2.5-2.5H78.092c-1.381,0-2.5,1.119-2.5,2.5
							s1.119,2.5,2.5,2.5H107.397z"/>
					</g>
				</g>
			</g>
			<g>
				<g>
					<g>
						<path class="st2" d="M107.397,94.525c1.381,0,2.5-1.119,2.5-2.5s-1.119-2.5-2.5-2.5H78.092c-1.381,0-2.5,1.119-2.5,2.5
							s1.119,2.5,2.5,2.5H107.397z"/>
					</g>
				</g>
			</g>
			<g>
				<g>
					<g>
						<path class="st4" d="M102.625,136.977c0-5.448-4.433-9.881-9.881-9.881s-9.88,4.433-9.88,9.881s4.432,9.881,9.88,9.881
							S102.625,142.425,102.625,136.977z M87.864,136.977c0-2.691,2.189-4.881,4.88-4.881c2.691,0,4.881,2.189,4.881,4.881
							s-2.189,4.881-4.881,4.881C90.054,141.857,87.864,139.668,87.864,136.977z"/>
					</g>
				</g>
			</g>
			<g>
				<g>
					<g>
						<g>
							<path class="st5" d="M102.625,136.977c0-5.448-4.433-9.881-9.881-9.881s-9.88,4.433-9.88,9.881s4.432,9.881,9.88,9.881
								S102.625,142.425,102.625,136.977z M84.364,136.977c0-4.621,3.759-8.381,8.38-8.381c4.621,0,8.381,3.76,8.381,8.381
								s-3.76,8.381-8.381,8.381C88.123,145.357,84.364,141.598,84.364,136.977z"/>
							<path class="st5" d="M99.125,136.977c0-3.518-2.862-6.381-6.381-6.381c-3.518,0-6.38,2.862-6.38,6.381
								s2.862,6.381,6.38,6.381C96.263,143.357,99.125,140.495,99.125,136.977z M87.864,136.977c0-2.691,2.189-4.881,4.88-4.881
								c2.691,0,4.881,2.189,4.881,4.881s-2.189,4.881-4.881,4.881C90.054,141.857,87.864,139.668,87.864,136.977z"/>
						</g>
					</g>
				</g>
			</g>
			<g>
				<g>
					<g>
						<path class="st2" d="M100.125,119.234c1.381,0,2.5-1.119,2.5-2.5s-1.119-2.5-2.5-2.5H85.364c-1.381,0-2.5,1.119-2.5,2.5
							s1.119,2.5,2.5,2.5H100.125z"/>
					</g>
				</g>
			</g>
			<g>
				<g>
					<g>
						<g>
							<path class="st3" d="M119.299,161.184c1.381,0,2.5-1.119,2.5-2.5V54.018c0-1.381-1.119-2.5-2.5-2.5H66.19
								c-1.381,0-2.5,1.119-2.5,2.5v104.666c0,1.381,1.119,2.5,2.5,2.5H119.299z M65.19,158.684V54.018c0-0.551,0.449-1,1-1h53.108
								c0.551,0,1,0.449,1,1v104.666c0,0.551-0.449,1-1,1H66.19C65.639,159.684,65.19,159.235,65.19,158.684z"/>
							<path class="st3" d="M68.69,157.684h48.108c0.828,0,1.5-0.672,1.5-1.5V56.518c0-0.828-0.672-1.5-1.5-1.5H68.69
								c-0.828,0-1.5,0.672-1.5,1.5v99.666C67.19,157.012,67.862,157.684,68.69,157.684z M68.69,56.518h48.108v99.666H68.69V56.518z
								"/>
						</g>
					</g>
				</g>
				<g>
					<g>
						<g>
							<path class="st3" d="M107.397,70.715c1.381,0,2.5-1.119,2.5-2.5s-1.119-2.5-2.5-2.5H78.092c-1.381,0-2.5,1.119-2.5,2.5
								s1.119,2.5,2.5,2.5H107.397z M77.092,68.215c0-0.551,0.449-1,1-1h29.306c0.551,0,1,0.449,1,1s-0.449,1-1,1H78.092
								C77.54,69.215,77.092,68.766,77.092,68.215z"/>
						</g>
					</g>
				</g>
				<g>
					<g>
						<g>
							<path class="st3" d="M107.397,82.62c1.381,0,2.5-1.119,2.5-2.5s-1.119-2.5-2.5-2.5H78.092c-1.381,0-2.5,1.119-2.5,2.5
								s1.119,2.5,2.5,2.5H107.397z M77.092,80.12c0-0.551,0.449-1,1-1h29.306c0.551,0,1,0.449,1,1s-0.449,1-1,1H78.092
								C77.54,81.12,77.092,80.672,77.092,80.12z"/>
						</g>
					</g>
				</g>
				<g>
					<g>
						<g>
							<path class="st3" d="M107.397,94.525c1.381,0,2.5-1.119,2.5-2.5s-1.119-2.5-2.5-2.5H78.092c-1.381,0-2.5,1.119-2.5,2.5
								s1.119,2.5,2.5,2.5H107.397z M77.092,92.025c0-0.551,0.449-1,1-1h29.306c0.551,0,1,0.449,1,1s-0.449,1-1,1H78.092
								C77.54,93.025,77.092,92.577,77.092,92.025z"/>
						</g>
					</g>
				</g>
				<g>
					<g>
						<g>
							<path class="st3" d="M100.125,119.234c1.381,0,2.5-1.119,2.5-2.5s-1.119-2.5-2.5-2.5H85.364c-1.381,0-2.5,1.119-2.5,2.5
								s1.119,2.5,2.5,2.5H100.125z M84.364,116.734c0-0.551,0.449-1,1-1h14.761c0.551,0,1,0.449,1,1s-0.449,1-1,1H85.364
								C84.813,117.734,84.364,117.285,84.364,116.734z"/>
						</g>
					</g>
				</g>
			</g>
		</g>
		<g>
			<g>
				<g>
					<path class="st9" d="M160.701,125.586h5.738c0.828,0,1.5-0.672,1.5-1.5V38.223c0-2.312-1.881-4.192-4.192-4.192h-0.354
						c-2.312,0-4.192,1.881-4.192,4.192v85.863C159.201,124.915,159.873,125.586,160.701,125.586z M160.701,38.223
						c0-1.484,1.208-2.692,2.692-2.692h0.354c1.484,0,2.692,1.208,2.692,2.692v85.863h-5.738V38.223z"/>
					<path class="st9" d="M103.642,180.345c-1.338,0-2.65,0.215-3.896,0.632c-2.519-6.876-9.074-11.594-16.635-11.594
						c-9.477,0-17.241,7.466-17.72,16.825c-4.618,1.818-7.793,6.339-7.793,11.436c0,6.774,5.511,12.285,12.285,12.285h123.054
						c1.847,0,3.554-0.922,4.567-2.466c1.013-1.544,1.179-3.477,0.444-5.17l-21.637-49.886c2.434-0.536,4.261-2.706,4.261-5.298
						v-4.883c0-2.592-1.827-4.762-4.261-5.298l2.259-5.207c0.734-1.694,0.567-3.627-0.446-5.171
						c-1.013-1.543-2.72-2.464-4.565-2.464h-2.119V38.223c0-4.242-3.451-7.692-7.692-7.692h-0.354c-4.241,0-7.692,3.451-7.692,7.692
						v85.863h-2.119c-1.847,0-3.554,0.922-4.567,2.466c-1.013,1.543-1.179,3.477-0.444,5.17l2.258,5.207
						c-2.433,0.536-4.26,2.706-4.26,5.297v4.883c0,2.592,1.827,4.762,4.26,5.297l-21.636,49.886
						c-0.366,0.845-0.508,1.75-0.433,2.636H69.883c-4.017,0-7.285-3.268-7.285-7.285c0-3.447,2.446-6.448,5.816-7.137
						c1.22-0.249,2.07-1.356,1.995-2.599l-0.017-0.259c-0.012-0.174-0.025-0.347-0.025-0.524c0-7.026,5.717-12.743,12.743-12.743
						c6.224,0,11.499,4.454,12.544,10.591c0.144,0.84,0.705,1.549,1.489,1.882c0.313,0.133,0.645,0.198,0.975,0.198
						c0.497,0,0.99-0.148,1.414-0.437c1.215-0.832,2.636-1.272,4.109-1.272c4.017,0,7.284,3.268,7.284,7.285
						c0,0.999-0.201,1.97-0.597,2.887c-0.334,0.772-0.257,1.661,0.206,2.365c0.457,0.695,1.229,1.117,2.06,1.126l10.354,3.301
						c0.252,0.08,0.507,0.118,0.759,0.118c1.059,0,2.044-0.677,2.383-1.741c0.419-1.315-0.307-2.722-1.622-3.141l-8.729-2.782
						c0.124-0.7,0.186-1.412,0.186-2.133C115.926,185.856,110.415,180.345,103.642,180.345z M124.013,198.974
						c0.525,0.167,0.816,0.731,0.649,1.256c-0.133,0.417-0.516,0.697-0.954,0.697c-0.102,0-0.204-0.016-0.303-0.047l-10.354-3.301
						c-0.142-0.045-0.289-0.069-0.438-0.071c-0.333-0.004-0.641-0.172-0.824-0.451c-0.185-0.282-0.216-0.635-0.082-0.946
						c0.477-1.107,0.719-2.278,0.719-3.481c0-4.844-3.941-8.785-8.784-8.785c-1.777,0-3.491,0.531-4.956,1.534
						c-0.168,0.115-0.364,0.176-0.567,0.176c-0.135,0-0.266-0.027-0.39-0.079c-0.316-0.134-0.539-0.416-0.596-0.753
						c-1.168-6.86-7.065-11.839-14.023-11.839c-7.854,0-14.243,6.389-14.243,14.243c0,0.19,0.012,0.376,0.025,0.563l0.004,0.057
						l0.016,0.253c0.03,0.493-0.313,0.939-0.798,1.038c-4.065,0.831-7.016,4.451-7.016,8.607c0,4.844,3.941,8.785,8.785,8.785
						h58.876c0.42,0,0.821-0.176,1.105-0.485c0.284-0.309,0.426-0.723,0.39-1.142c-0.055-0.649,0.054-1.311,0.315-1.913
						l21.636-49.886c0.178-0.411,0.163-0.88-0.04-1.279c-0.204-0.399-0.575-0.686-1.013-0.782c-1.786-0.393-3.083-2.005-3.083-3.833
						v-4.883c0-1.827,1.297-3.439,3.083-3.833c0.438-0.096,0.809-0.383,1.013-0.782c0.204-0.399,0.219-0.868,0.04-1.279
						l-2.258-5.207c-0.533-1.229-0.412-2.631,0.322-3.75c0.735-1.12,1.974-1.789,3.313-1.789h2.119c0.828,0,1.5-0.672,1.5-1.5
						V38.223c0-3.414,2.778-6.192,6.192-6.192h0.354c3.414,0,6.192,2.778,6.192,6.192v85.863c0,0.828,0.672,1.5,1.5,1.5h2.119
						c1.339,0,2.577,0.668,3.312,1.788c0.735,1.12,0.856,2.522,0.324,3.751l-2.259,5.207c-0.178,0.411-0.164,0.88,0.04,1.279
						c0.204,0.399,0.576,0.686,1.013,0.782c1.787,0.393,3.083,2.005,3.083,3.833v4.883c0,1.828-1.297,3.44-3.084,3.833
						c-0.438,0.096-0.809,0.383-1.013,0.782c-0.204,0.399-0.219,0.868-0.04,1.279l21.637,49.886c0.533,1.228,0.412,2.63-0.322,3.75
						c-0.735,1.12-1.974,1.789-3.313,1.789H69.883c-5.947,0-10.785-4.838-10.785-10.785c0-4.394,2.75-8.429,6.843-10.04
						c0.548-0.216,0.918-0.731,0.948-1.319c0.442-8.636,7.567-15.402,16.222-15.402c6.783,0,12.902,4.264,15.226,10.61
						c0.222,0.606,0.796,0.984,1.408,0.984c0.158,0,0.319-0.025,0.477-0.078c1.099-0.368,2.249-0.555,3.42-0.555
						c5.946,0,10.784,4.838,10.784,10.785c0,0.633-0.055,1.262-0.163,1.871c-0.131,0.74,0.306,1.463,1.021,1.691L124.013,198.974z"
						/>
					<path class="st9" d="M134.204,206.43h58.732c0.674,0,1.272-0.323,1.64-0.885c0.37-0.562,0.428-1.239,0.161-1.858
						l-22.444-51.747c-0.238-0.548-0.778-0.903-1.376-0.903h-14.694c-0.598,0-1.138,0.355-1.376,0.903l-22.441,51.744
						c-0.269,0.618-0.212,1.295,0.159,1.861C132.934,206.107,133.531,206.43,134.204,206.43z M133.78,204.283l22.442-51.746h14.694
						l22.444,51.747c0.065,0.151,0.053,0.299-0.038,0.437c-0.091,0.139-0.221,0.209-0.387,0.209h-58.732
						c-0.166,0-0.296-0.07-0.387-0.208C133.727,204.583,133.714,204.436,133.78,204.283z"/>
					<path class="st9" d="M177.072,147.11v-4.883c0-1.063-0.865-1.927-1.928-1.927h-23.148c-1.063,0-1.928,0.865-1.928,1.927v4.883
						c0,1.063,0.865,1.927,1.928,1.927h23.148C176.208,149.037,177.072,148.173,177.072,147.11z M151.568,147.11v-4.883
						c0-0.235,0.191-0.427,0.428-0.427h23.148c0.236,0,0.428,0.192,0.428,0.427v4.883c0,0.235-0.191,0.427-0.428,0.427h-23.148
						C151.76,147.537,151.568,147.345,151.568,147.11z"/>
					<path class="st9" d="M156.223,138.299h14.694c0.598,0,1.138-0.355,1.376-0.903l3.063-7.061
						c0.272-0.621,0.214-1.302-0.158-1.864c-0.37-0.562-0.967-0.884-1.639-0.884h-19.977c-0.674,0-1.272,0.323-1.64,0.885
						c-0.369,0.562-0.428,1.239-0.161,1.856c0.006,0.015,0.013,0.03,0.02,0.044l3.046,7.024
						C155.084,137.944,155.625,138.299,156.223,138.299z M153.157,129.732c-0.065-0.151-0.053-0.299,0.038-0.437
						c0.091-0.139,0.221-0.209,0.387-0.209h19.977c0.165,0,0.295,0.07,0.386,0.208c0.092,0.139,0.104,0.286,0.038,0.438
						l-3.065,7.067h-14.694L153.157,129.732C153.158,129.733,153.158,129.732,153.157,129.732z"/>
				</g>
			</g>
		</g>
	</g>
</g>
</svg>
